<svg viewBox="0 0 180 150" fill="none" xmlns="http://www.w3.org/2000/svg">
<g clip-path="url(#clip0_9_8)">
<path d="M53.25 1.52588e-05C42.6491 0.970519 32.184 4.45555 23.35 10.45C12.4084 18.0013 5.75571 29.6176 2.45002 42.25C0.950023 48.1 0.450023 59.75 1.55002 65.7C2.20002 69.3 4.75002 77.5 6.00002 80C10.2 88.45 16.85 95.25 25.55 100.15L27.75 101.4L28 124.6L28.25 147.75C30.7959 147.75 39.5449 147.75 41.1 147.75C41.1 145 41.05 140.65 41.1 126.45L41.25 106.25L47.75 106.4C54.35 106.55 62.95 105.65 65.75 104.5C66.3 104.3 67.75 103.8 69 103.45C75.4 101.55 83.25 95.85 88.3 89.4C90.2 86.95 92.75 82.6 95 75.5C97.6915 67.0744 95.2865 56.6861 88.9 47.85C80.4588 36.171 67.0491 31.3012 54.5 34.5C44.7484 37.024 35.9259 43.2794 31.5 52.5C30.35 54.85 29.75 56.65 28.55 61.3C28.25 62.45 28 68 28 73.6C28 84.7 27.75 85.7 25.55 84.5C14.9654 78.9474 11.6061 62.1913 14.45 47.3C17.5878 30.8703 26.8161 19.9012 42.75 15.15C47.9 13.6 50.65 13.1 56.5 12.65C68.7605 11.6821 81.9283 15.1393 91.75 22.65C100.958 29.6508 109.503 40.7099 112.1 52.25C115.721 68.1822 114.153 83.4007 104.85 97.1C101.8 101.65 95.9 107.7 91.75 110.5C88 113 87.05 114 86.7 115.85C86 119.55 87.3 121.55 98.7 134C102.273 137.884 104.942 141.103 108.5 145L111 147.5C114.187 147.5 122 147.5 125.9 147.4C126.75 146.55 126.65 146.2 125.4 144.9C119.208 138.708 103 118.9 103 118.9C103 118.9 104.95 116.35 107.3 114C111.15 110.2 116 104.45 116 103.7C116 103.55 116.65 102.5 117.45 101.35C119.55 98.25 123 90.65 124.4 86C127.45 75.7 127.9 62.7 125.45 52.85C123.3 44 120.9 38.05 117.5 32.75C109.726 20.5341 99.7817 10.5727 86.25 4.75002C75.8854 0.370588 64.3981 -1.02058 53.25 1.52588e-05ZM67.95 47.6C74.05 49.65 79.25 55.25 81.45 62.05C86.5899 78.9381 70.2538 91.435 55.3 93.45C51.2 94.05 42.95 93.35 41.65 92.35C40.75 91.65 40.75 64 41.65 61.5C43.25 57.05 46.1 53 49.2 50.7C51.2 49.25 51.95 48.85 54.75 47.7C56.75 46.9 65.7 46.85 67.95 47.6Z" fill="black"/>
</g>
<clipPath id="clip0_9_8">
<rect width="127" height="148" fill="white"/>
</clipPath>
</svg>
