<svg width="512" height="512" viewBox="0 0 512 512" fill="none" xmlns="http://www.w3.org/2000/svg">
<g clip-path="url(#clip0_27_2)">
<rect width="512" height="512" rx="100" fill="white"/>
<g clip-path="url(#clip1_27_2)">
<path d="M222.946 24.0001C189.711 27.0427 156.901 37.9688 129.205 56.7622C94.9019 80.4365 74.0449 116.855 63.6811 156.459C58.9784 174.8 57.4108 211.324 60.8595 229.978C62.8973 241.265 70.8919 266.973 74.8108 274.811C87.9784 301.303 108.827 322.622 136.103 337.984L143 341.903L143.784 414.638L144.568 487.216C152.549 487.216 179.979 487.216 184.854 487.216C184.854 478.595 184.697 464.957 184.854 420.438L185.324 357.108L205.703 357.578C226.395 358.049 253.357 355.227 262.135 351.622C263.859 350.995 268.405 349.427 272.324 348.33C292.389 342.373 317 324.503 332.832 304.281C338.789 296.6 346.784 282.962 353.838 260.703C362.276 234.287 354.736 201.719 334.713 174.016C308.249 137.401 266.208 122.134 226.865 132.162C196.292 140.075 168.632 159.687 154.757 188.595C151.151 195.962 149.27 201.605 145.508 216.184C144.568 219.789 143.784 237.189 143.784 254.746C143.784 289.546 143 292.681 136.103 288.919C102.919 271.511 92.3866 218.978 101.303 172.292C111.14 120.783 140.072 86.393 190.027 71.4974C206.173 66.6379 214.795 65.0703 233.135 63.6595C271.573 60.6249 312.856 71.4638 343.649 95.0108C372.515 116.959 399.308 151.631 407.449 187.811C418.801 237.76 413.886 285.472 384.719 328.422C375.157 342.687 356.659 361.654 343.649 370.432C331.892 378.27 328.913 381.405 327.816 387.205C325.622 398.805 329.697 405.076 365.438 444.108C376.639 456.284 385.006 466.376 396.162 478.595L404 486.433C413.991 486.433 438.486 486.433 450.713 486.119C453.378 483.454 453.065 482.357 449.146 478.281C429.734 458.869 378.919 396.768 378.919 396.768C378.919 396.768 385.032 388.773 392.4 381.405C404.47 369.492 419.676 351.465 419.676 349.114C419.676 348.643 421.713 345.351 424.222 341.746C430.805 332.027 441.622 308.2 446.011 293.622C455.573 261.33 456.984 220.573 449.303 189.692C442.562 161.946 435.038 143.292 424.378 126.676C400.006 88.3771 368.829 57.147 326.405 38.892C293.911 25.1619 257.897 20.8004 222.946 24.0001ZM269.032 173.232C288.157 179.659 304.459 197.216 311.357 218.535C327.471 271.482 276.255 310.661 229.373 316.978C216.519 318.859 190.654 316.665 186.578 313.53C183.757 311.335 183.757 224.649 186.578 216.811C191.595 202.859 200.53 190.162 210.249 182.951C216.519 178.405 218.87 177.151 227.649 173.546C233.919 171.038 261.978 170.881 269.032 173.232Z" fill="black"/>
</g>
</g>
<defs>
<clipPath id="clip0_27_2">
<rect width="512" height="512" fill="white"/>
</clipPath>
<clipPath id="clip1_27_2">
<rect width="398.162" height="464" fill="white" transform="translate(56 24)"/>
</clipPath>
</defs>
</svg>
